<svg width="121" height="30" viewBox="0 0 121 30" fill="none" xmlns="http://www.w3.org/2000/svg">
<g clip-path="url(#clip0_1_647)">
<path d="M7.714 29H12.274L20.102 10.228H15.314L11.894 18.854C11.096 20.906 10.412 22.882 10.146 24.06C9.918 23.034 9.272 21.096 8.474 18.854L5.206 10.228H0.266001L7.714 29ZM23.565 6.466C25.085 6.466 26.339 5.212 26.339 3.654C26.3402 3.28938 26.2692 2.92813 26.1303 2.59103C25.9913 2.25394 25.787 1.94766 25.5292 1.68984C25.2713 1.43201 24.9651 1.22772 24.628 1.08874C24.2909 0.949752 23.9296 0.878812 23.565 0.880001C21.969 0.880001 20.715 2.096 20.715 3.654C20.715 5.212 21.969 6.466 23.565 6.466ZM21.247 29H25.883V10.228H21.247V29ZM33.447 29L33.751 26.074C34.853 28.24 37.247 29.494 40.059 29.494C45.455 29.494 48.989 25.504 48.989 19.728C48.989 13.8 45.721 9.62 40.363 9.62C37.513 9.62 35.005 10.874 33.789 12.964V0.728001H29.153V29H33.447ZM33.827 19.538C33.827 16.156 35.917 13.8 39.109 13.8C42.377 13.8 44.315 16.194 44.315 19.538C44.315 22.882 42.377 25.238 39.109 25.238C35.917 25.238 33.827 22.92 33.827 19.538ZM62.94 10.152C62.2699 9.97731 61.5805 9.88793 60.888 9.886C58.38 9.886 56.594 11.14 55.796 13.002L55.53 10.266H51.16V29H55.796V19.88C55.796 16.232 57.886 14.446 61.23 14.446H62.94V10.152ZM69.402 29.494C72.328 29.494 74.874 28.164 75.672 26.226L76.014 29H80.08V17.6C80.08 12.394 76.964 9.658 71.91 9.658C66.818 9.658 63.474 12.318 63.474 16.384H67.426C67.426 14.408 68.946 13.268 71.682 13.268C74.038 13.268 75.558 14.294 75.558 16.84V17.258L69.934 17.676C65.488 18.018 62.98 20.184 62.98 23.642C62.98 27.176 65.412 29.494 69.402 29.494ZM70.922 25.998C68.832 25.998 67.692 25.162 67.692 23.452C67.692 21.932 68.794 20.982 71.682 20.716L75.596 20.412V21.4C75.596 24.288 73.772 25.998 70.922 25.998ZM87.75 29V18.892C87.75 15.852 89.498 13.876 92.348 13.876C94.742 13.876 96.3 15.396 96.3 18.55V29H100.936V17.448C100.936 12.584 98.504 9.658 93.792 9.658C91.246 9.658 88.966 10.76 87.788 12.66L87.408 10.228H83.114V29H87.75ZM110.355 29V14.104H114.003V10.228H110.355V4.376H105.719V10.228H102.109V14.104H105.719V29H110.355ZM117.331 29.456C119.003 29.456 120.409 28.088 120.409 26.454C120.409 24.782 119.003 23.414 117.331 23.414C115.659 23.414 114.253 24.782 114.253 26.454C114.253 28.088 115.659 29.456 117.331 29.456Z" fill="url(#paint0_radial_1_647)"/>
</g>
<defs>
<radialGradient id="paint0_radial_1_647" cx="0" cy="0" r="1" gradientUnits="userSpaceOnUse" gradientTransform="translate(114.214 33.158) rotate(-167.386) scale(99.6764 318.598)">
<stop stop-color="white"/>
<stop offset="0.15" stop-color="#63FFD1"/>
<stop offset="0.446" stop-color="#BF9DFF"/>
<stop offset="0.682" stop-color="#FFEA22"/>
<stop offset="1" stop-color="white"/>
</radialGradient>
<clipPath id="clip0_1_647">
<rect width="121" height="30" fill="white"/>
</clipPath>
</defs>
</svg>
